<svg width="50" height="44" viewBox="0 0 50 44" fill="none" xmlns="http://www.w3.org/2000/svg">
<g clip-path="url(#clip0_499_77)">
<path fill-rule="evenodd" clip-rule="evenodd" d="M33.3333 43.1538C33.3333 43.6209 32.96 44 32.5 44H30.8333C30.3733 44 30 43.6209 30 43.1538C30 42.6868 30.3733 42.3077 30.8333 42.3077H32.5C32.96 42.3077 33.3333 42.6868 33.3333 43.1538ZM50 43.1538C50 43.6209 49.6267 44 49.1667 44H35.8333C35.3733 44 35 43.6209 35 43.1538C35 42.6868 35.3733 42.3077 35.8333 42.3077H49.1667C49.6267 42.3077 50 42.6868 50 43.1538ZM26.6667 43.1538C26.6667 43.6209 26.2933 44 25.8333 44H17.5C17.04 44 16.6667 43.6209 16.6667 43.1538C16.6667 42.6868 17.04 42.3077 17.5 42.3077H25.8333C26.2933 42.3077 26.6667 42.6868 26.6667 43.1538ZM13.3333 43.1538C13.3333 43.6209 12.96 44 12.5 44H0.833333C0.373333 44 0 43.6209 0 43.1538C0 42.6868 0.373333 42.3077 0.833333 42.3077H12.5C12.96 42.3077 13.3333 42.6868 13.3333 43.1538ZM1.66667 26.2308C1.66667 25.7637 2.04 25.3846 2.5 25.3846H4.86667L4.51417 22.9705C4.44667 22.5085 4.76083 22.0778 5.21583 22.0093C5.67417 21.9442 6.09583 22.2598 6.16333 22.7218L6.5525 25.3846H12.5C12.96 25.3846 13.3333 25.7637 13.3333 26.2308C13.3333 26.6978 12.96 27.0769 12.5 27.0769H2.5C2.04 27.0769 1.66667 26.6978 1.66667 26.2308ZM2.5 18.6154H3.79917L3.44667 16.2013C3.37917 15.7393 3.69333 15.3086 4.14833 15.2401C4.60667 15.1758 5.02833 15.4905 5.095 15.9525L5.485 18.6154H12.5C12.96 18.6154 13.3333 18.9945 13.3333 19.4615C13.3333 19.9286 12.96 20.3077 12.5 20.3077H2.5C2.04 20.3077 1.66667 19.9286 1.66667 19.4615C1.66667 18.9945 2.04 18.6154 2.5 18.6154ZM12.5 35.5385C12.0408 35.5385 11.6667 35.1585 11.6667 34.6923C11.6667 34.2261 12.0408 33.8462 12.5 33.8462C12.9592 33.8462 13.3333 34.2261 13.3333 34.6923C13.3333 35.1585 12.9592 35.5385 12.5 35.5385ZM12.5 32.1538C11.1217 32.1538 10 33.2928 10 34.6923C10 36.0918 11.1217 37.2308 12.5 37.2308C13.8783 37.2308 15 36.0918 15 34.6923C15 33.2928 13.8783 32.1538 12.5 32.1538ZM40.8333 35.5385C40.3742 35.5385 40 35.1585 40 34.6923C40 34.2261 40.3742 33.8462 40.8333 33.8462C41.2925 33.8462 41.6667 34.2261 41.6667 34.6923C41.6667 35.1585 41.2925 35.5385 40.8333 35.5385ZM40.8333 32.1538C39.455 32.1538 38.3333 33.2928 38.3333 34.6923C38.3333 36.0918 39.455 37.2308 40.8333 37.2308C42.2117 37.2308 43.3333 36.0918 43.3333 34.6923C43.3333 33.2928 42.2117 32.1538 40.8333 32.1538ZM40.8333 38.9231C38.5358 38.9231 36.6667 37.0252 36.6667 34.6923C36.6667 32.3595 38.5358 30.4615 40.8333 30.4615C43.1308 30.4615 45 32.3595 45 34.6923C45 37.0252 43.1308 38.9231 40.8333 38.9231ZM48.9225 21.4018L46.6383 19.0825L45.8333 9.30769C45.8333 6.97485 43.9642 5.07692 41.6667 5.07692H35.8333C35.3733 5.07692 35 5.456 35 5.92308C35 6.39015 35.3733 6.76923 35.8333 6.76923H41.6667C43.0217 6.76923 44.1667 7.93185 44.1692 9.37792L44.9275 18.6154H42.1817L43.2458 16.4552C43.4517 16.0372 43.2842 15.5295 42.8725 15.3196C42.46 15.1106 41.9608 15.2807 41.7542 15.6987L40.3183 18.6154H35.8333C35.3733 18.6154 35 18.9945 35 19.4615C35 19.9286 35.3733 20.3077 35.8333 20.3077H45.4883L47.7442 22.5982C48.2192 23.0805 48.3317 24.1898 48.3333 24.5385V33.8462H46.6C46.1942 30.9802 43.7667 28.7692 40.8333 28.7692C37.6167 28.7692 35 31.4262 35 34.6923C35 37.9585 37.6167 40.6154 40.8333 40.6154C43.7667 40.6154 46.1942 38.4044 46.6 35.5385H49.1667C49.6267 35.5385 50 35.1594 50 34.6923V24.5385C50 24.3295 49.97 22.4645 48.9225 21.4018ZM12.5 38.9231C10.2025 38.9231 8.33333 37.0252 8.33333 34.6923C8.33333 32.3595 10.2025 30.4615 12.5 30.4615C14.7975 30.4615 16.6667 32.3595 16.6667 34.6923C16.6667 37.0252 14.7975 38.9231 12.5 38.9231ZM32.5 0H5.83333C3.53583 0 1.66667 1.89792 1.66667 4.23077C1.66667 4.27308 1.67 4.31454 1.67583 4.356L2.7825 11.8462H0.833333C0.373333 11.8462 0 12.2252 0 12.6923C0 13.1594 0.373333 13.5385 0.833333 13.5385H12.5C12.96 13.5385 13.3333 13.1594 13.3333 12.6923C13.3333 12.2252 12.96 11.8462 12.5 11.8462H4.4675L3.33417 4.17238C3.365 2.79992 4.47417 1.69231 5.83333 1.69231H31.6667V33.8462H18.2667C17.8608 30.9802 15.4333 28.7692 12.5 28.7692C9.28333 28.7692 6.66667 31.4262 6.66667 34.6923C6.66667 37.9585 9.28333 40.6154 12.5 40.6154C15.4333 40.6154 17.8608 38.4044 18.2667 35.5385H32.5C32.96 35.5385 33.3333 35.1594 33.3333 34.6923V0.846154C33.3333 0.379077 32.96 0 32.5 0Z" fill="black"/>
</g>
<defs>
<clipPath id="clip0_499_77">
<rect width="50" height="44" fill="white"/>
</clipPath>
</defs>
</svg>
