<svg width="50" height="50" viewBox="0 0 50 50" fill="none" xmlns="http://www.w3.org/2000/svg">
<g clip-path="url(#clip0_499_57)">
<path d="M0 38.6401L38.6401 0L50 11.36L11.36 50L0 38.6401Z" stroke="black" stroke-width="1.15021" stroke-linecap="round" stroke-linejoin="round"/>
<path d="M46.7705 14.5819L41.4103 9.22168" stroke="black" stroke-width="2.20919"/>
<path d="M42.7235 18.6291L38.9713 14.877" stroke="black" stroke-width="2.20919"/>
<path d="M38.7816 22.5707L33.4214 17.2104" stroke="black" stroke-width="2.20919"/>
<path d="M34.7347 26.6179L30.9825 22.8657" stroke="black" stroke-width="2.20919"/>
<path d="M30.5824 30.7699L25.2222 25.4097" stroke="black" stroke-width="2.20919"/>
<path d="M26.5355 34.8171L22.7833 31.0649" stroke="black" stroke-width="2.20919"/>
<path d="M22.5936 38.7589L17.2334 33.3987" stroke="black" stroke-width="2.20919"/>
<path d="M18.5466 42.8058L14.7944 39.0537" stroke="black" stroke-width="2.20919"/>
<path d="M14.4505 46.902L9.09033 41.5417" stroke="black" stroke-width="2.20919"/>
<path d="M22.9734 0.673096L26.2456 3.86165L7.44142 23.0591L1.42322 25.9619L4.16919 19.8705L22.9734 0.673096Z" stroke="black" stroke-width="1.15021" stroke-linecap="round" stroke-linejoin="round"/>
<path d="M19.3805 3.92554L22.8019 7.34697" stroke="black" stroke-width="1.15021"/>
</g>
<defs>
<clipPath id="clip0_499_57">
<rect width="50" height="50" fill="white"/>
</clipPath>
</defs>
</svg>
