<svg width="50" height="50" viewBox="0 0 50 50" fill="none" xmlns="http://www.w3.org/2000/svg">
<g clip-path="url(#clip0_499_75)">
<path d="M35.479 25.3007C34.5685 24.3902 33.086 24.3902 32.175 25.3007L32.142 25.3337L31.493 24.6847L37.9175 18.2607C41.242 19.2822 44.7975 18.4092 47.2635 15.9432C49.432 13.7747 50.3985 10.6792 49.8485 7.66317C49.815 7.48017 49.683 7.33067 49.5055 7.27567C49.3285 7.22017 49.135 7.26817 49.003 7.39967L44.526 11.8762L39.007 10.9927L38.1235 5.47367L42.6 0.996666C42.7315 0.865166 42.779 0.671666 42.724 0.494166C42.669 0.316666 42.5195 0.184666 42.3365 0.151166C39.321 -0.397834 36.225 0.567666 34.0565 2.73617C31.5905 5.20217 30.717 8.75717 31.739 12.0822L25.315 18.5072L11.9105 5.10267C11.86 5.05217 11.799 5.01317 11.7325 4.98817L8.37403 3.73017C8.19003 3.66167 7.98353 3.70617 7.84503 3.84467C7.70653 3.98317 7.66153 4.19017 7.73053 4.37367L8.98853 7.73217C9.01353 7.79917 9.05253 7.85967 9.10303 7.91017L22.5075 21.3147L16.083 27.7387C12.758 26.7167 9.20253 27.5907 6.73703 30.0562C4.56803 32.2247 3.60153 35.3202 4.15153 38.3362C4.18503 38.5192 4.31703 38.6687 4.49453 38.7237C4.67203 38.7797 4.86553 38.7317 4.99703 38.5997L9.47403 34.1232L14.993 35.0067L15.8765 40.5257L11.4 45.0027C11.2685 45.1342 11.221 45.3277 11.276 45.5052C11.331 45.6827 11.4805 45.8147 11.6635 45.8482C12.221 45.9497 12.7815 45.9997 13.338 45.9997C15.7925 45.9997 18.176 45.0307 19.9435 43.2627C22.4095 40.7972 23.283 37.2417 22.261 33.9167L28.685 27.4922L29.334 28.1412L29.301 28.1742C28.39 29.0852 28.39 30.5672 29.301 31.4782L41.42 43.5972C41.873 44.0502 42.468 44.2762 43.064 44.2762C43.6625 44.2762 44.262 44.0477 44.7185 43.5912L47.5925 40.7172C48.5035 39.8062 48.506 38.3267 47.598 37.4192L35.479 25.3007ZM33.8465 34.6102L34.817 33.6397L39.2555 38.0782L38.285 39.0487L33.8465 34.6102ZM37.903 29.1397L36.5795 30.4632L34.4635 32.5792L33.14 33.9027L31.731 32.4937L36.494 27.7307L37.903 29.1397ZM36.933 31.5237L41.3715 35.9622L39.9625 37.3712L35.524 32.9327L36.933 31.5237ZM38.9925 39.7552L40.316 38.4317L42.432 36.3157L43.7555 34.9922L45.1645 36.4012L40.4015 41.1642L38.9925 39.7552ZM42.0785 35.2552L37.64 30.8167L38.6105 29.8462L43.049 34.2852L42.0785 35.2552ZM32.663 12.5732C32.798 12.4382 32.8445 12.2382 32.7825 12.0572C31.737 9.01167 32.496 5.71117 34.7635 3.44317C36.4635 1.74367 38.801 0.871166 41.1675 1.01517L37.236 4.94667C37.1225 5.06017 37.0705 5.22067 37.096 5.37917L38.077 11.5077C38.111 11.7207 38.2785 11.8882 38.4915 11.9222L44.62 12.9032C44.778 12.9287 44.939 12.8762 45.0525 12.7632L48.984 8.83167C49.1285 11.1987 48.2555 13.5362 46.556 15.2357C44.2885 17.5037 40.988 18.2627 37.942 17.2167C37.7605 17.1537 37.5605 17.2007 37.426 17.3362L30.7855 23.9777L29.3745 22.5667L34.4975 17.4437C34.757 17.1847 34.8995 16.8397 34.8995 16.4727C34.8995 16.1057 34.7565 15.7607 34.498 15.5017C33.98 14.9837 33.0735 14.9837 32.556 15.5017L27.433 20.6247L26.022 19.2137L32.663 12.5732ZM28.14 21.3322L33.2635 16.2092C33.4035 16.0687 33.6505 16.0682 33.791 16.2092C33.8615 16.2792 33.9 16.3732 33.9 16.4727C33.9 16.5722 33.8615 16.6662 33.791 16.7362L28.6675 21.8597L28.14 21.3322ZM21.337 33.4262C21.202 33.5612 21.1555 33.7612 21.2175 33.9422C22.263 36.9877 21.504 40.2882 19.2365 42.5557C17.537 44.2552 15.202 45.1287 12.8325 44.9842L16.764 41.0527C16.8775 40.9392 16.9295 40.7787 16.904 40.6202L15.923 34.4917C15.889 34.2787 15.7215 34.1112 15.5085 34.0772L9.38003 33.0957C9.22153 33.0692 9.06053 33.1222 8.94753 33.2357L5.01603 37.1672C4.87153 34.8002 5.74453 32.4627 7.44453 30.7632C9.71253 28.4957 13.0135 27.7372 16.058 28.7822C16.2385 28.8437 16.4385 28.7977 16.574 28.6627L23.215 22.0217L24.626 23.4327L19.502 28.5552C19.243 28.8142 19.1 29.1592 19.1 29.5262C19.1 29.8932 19.243 30.2382 19.5015 30.4972C19.7605 30.7562 20.1055 30.8992 20.4725 30.8992C20.8395 30.8992 21.1845 30.7562 21.4435 30.4972L26.567 25.3747L27.978 26.7857L21.337 33.4262ZM25.86 24.6672L20.737 29.7907C20.597 29.9312 20.35 29.9317 20.2095 29.7907C20.139 29.7207 20.1005 29.6267 20.1005 29.5272C20.1005 29.4277 20.139 29.3337 20.2095 29.2632L25.3325 24.1397L25.86 24.6672ZM29.0385 26.4317L26.9205 24.3137L25.6855 23.0787L23.5675 20.9607L9.88653 7.28017L9.05203 5.05217L11.28 5.88667L24.961 19.5677L27.079 21.6857L28.314 22.9207L30.432 25.0387L31.4345 26.0412L30.041 27.4347L29.0385 26.4317ZM30.008 28.8817L30.3945 28.4952L32.495 26.3947L32.8815 26.0082C33.142 25.7477 33.4845 25.6177 33.8265 25.6177C34.169 25.6177 34.511 25.7477 34.7715 26.0082L35.787 27.0237L31.023 31.7877L30.0075 30.7722C29.487 30.2507 29.487 29.4027 30.008 28.8817ZM46.885 40.0107L44.011 42.8847C43.7585 43.1372 43.4235 43.2767 43.0675 43.2777C42.7135 43.2812 42.378 43.1412 42.127 42.8902L41.1085 41.8717L45.872 37.1082L46.8905 38.1267C47.1415 38.3777 47.279 38.7117 47.278 39.0672C47.277 39.4232 47.1375 39.7582 46.885 40.0107Z" fill="black"/>
</g>
<defs>
<clipPath id="clip0_499_75">
<rect width="50" height="50" fill="white"/>
</clipPath>
</defs>
</svg>
